<mxfile host="app.diagrams.net" agent="Mozilla/5.0 (Windows NT 10.0; Win64; x64) AppleWebKit/537.36 (KHTML, like Gecko) Chrome/130.0.0.0 Safari/537.36" version="24.8.6">
  <diagram name="Page-1" id="yoS0N-DTvNPpqEnKKfFx">
    <mxGraphModel dx="2185" dy="671" grid="1" gridSize="10" guides="1" tooltips="1" connect="1" arrows="1" fold="1" page="1" pageScale="1" pageWidth="850" pageHeight="1100" math="0" shadow="0">
      <root>
        <mxCell id="0" />
        <mxCell id="1" parent="0" />
        <mxCell id="uK9fZR5ONA7Qq86j6XnF-1" value="EagleAccount" style="rounded=0;whiteSpace=wrap;html=1;fillColor=#dae8fc;strokeColor=#6c8ebf;" parent="1" vertex="1">
          <mxGeometry x="360" y="320" width="120" height="60" as="geometry" />
        </mxCell>
        <mxCell id="uK9fZR5ONA7Qq86j6XnF-2" value="EagleResrevation" style="rounded=0;whiteSpace=wrap;html=1;fillColor=#dae8fc;strokeColor=#6c8ebf;" parent="1" vertex="1">
          <mxGeometry x="720" y="320" width="120" height="60" as="geometry" />
        </mxCell>
        <mxCell id="uK9fZR5ONA7Qq86j6XnF-3" value="EagleFeedbac&lt;span style=&quot;background-color: initial;&quot;&gt;k&lt;/span&gt;" style="rounded=0;whiteSpace=wrap;html=1;fillColor=#dae8fc;strokeColor=#6c8ebf;" parent="1" vertex="1">
          <mxGeometry x="10" y="320" width="120" height="60" as="geometry" />
        </mxCell>
        <mxCell id="uK9fZR5ONA7Qq86j6XnF-4" value="EagleInventory" style="rounded=0;whiteSpace=wrap;html=1;fillColor=#dae8fc;strokeColor=#6c8ebf;" parent="1" vertex="1">
          <mxGeometry x="360" y="110" width="120" height="60" as="geometry" />
        </mxCell>
        <mxCell id="uK9fZR5ONA7Qq86j6XnF-10" style="edgeStyle=orthogonalEdgeStyle;rounded=0;orthogonalLoop=1;jettySize=auto;html=1;exitX=1;exitY=0.5;exitDx=0;exitDy=0;entryX=0;entryY=0.5;entryDx=0;entryDy=0;" parent="1" source="uK9fZR5ONA7Qq86j6XnF-5" target="uK9fZR5ONA7Qq86j6XnF-1" edge="1">
          <mxGeometry relative="1" as="geometry" />
        </mxCell>
        <mxCell id="uK9fZR5ONA7Qq86j6XnF-11" style="edgeStyle=orthogonalEdgeStyle;rounded=0;orthogonalLoop=1;jettySize=auto;html=1;exitX=0;exitY=0.5;exitDx=0;exitDy=0;entryX=1;entryY=0.5;entryDx=0;entryDy=0;endArrow=none;endFill=0;" parent="1" source="uK9fZR5ONA7Qq86j6XnF-5" target="uK9fZR5ONA7Qq86j6XnF-3" edge="1">
          <mxGeometry relative="1" as="geometry" />
        </mxCell>
        <mxCell id="uK9fZR5ONA7Qq86j6XnF-5" value="Gives" style="rhombus;whiteSpace=wrap;html=1;fillColor=#f8cecc;strokeColor=#b85450;" parent="1" vertex="1">
          <mxGeometry x="210" y="325" width="50" height="50" as="geometry" />
        </mxCell>
        <mxCell id="uK9fZR5ONA7Qq86j6XnF-8" style="edgeStyle=orthogonalEdgeStyle;rounded=0;orthogonalLoop=1;jettySize=auto;html=1;exitX=1;exitY=0.5;exitDx=0;exitDy=0;entryX=0;entryY=0.5;entryDx=0;entryDy=0;endArrow=none;endFill=0;" parent="1" source="uK9fZR5ONA7Qq86j6XnF-6" target="uK9fZR5ONA7Qq86j6XnF-2" edge="1">
          <mxGeometry relative="1" as="geometry" />
        </mxCell>
        <mxCell id="uK9fZR5ONA7Qq86j6XnF-9" style="edgeStyle=orthogonalEdgeStyle;rounded=0;orthogonalLoop=1;jettySize=auto;html=1;exitX=0;exitY=0.5;exitDx=0;exitDy=0;entryX=1;entryY=0.5;entryDx=0;entryDy=0;" parent="1" source="uK9fZR5ONA7Qq86j6XnF-6" target="uK9fZR5ONA7Qq86j6XnF-1" edge="1">
          <mxGeometry relative="1" as="geometry" />
        </mxCell>
        <mxCell id="uK9fZR5ONA7Qq86j6XnF-6" value="Book" style="rhombus;whiteSpace=wrap;html=1;fillColor=#f8cecc;strokeColor=#b85450;" parent="1" vertex="1">
          <mxGeometry x="560" y="320" width="60" height="60" as="geometry" />
        </mxCell>
        <mxCell id="uK9fZR5ONA7Qq86j6XnF-12" style="edgeStyle=orthogonalEdgeStyle;rounded=0;orthogonalLoop=1;jettySize=auto;html=1;entryX=0.5;entryY=0;entryDx=0;entryDy=0;" parent="1" source="uK9fZR5ONA7Qq86j6XnF-7" target="uK9fZR5ONA7Qq86j6XnF-1" edge="1">
          <mxGeometry relative="1" as="geometry" />
        </mxCell>
        <mxCell id="uK9fZR5ONA7Qq86j6XnF-14" style="edgeStyle=orthogonalEdgeStyle;rounded=0;orthogonalLoop=1;jettySize=auto;html=1;exitX=0.5;exitY=0;exitDx=0;exitDy=0;entryX=0.5;entryY=1;entryDx=0;entryDy=0;endArrow=none;endFill=0;" parent="1" source="uK9fZR5ONA7Qq86j6XnF-7" target="uK9fZR5ONA7Qq86j6XnF-4" edge="1">
          <mxGeometry relative="1" as="geometry" />
        </mxCell>
        <mxCell id="uK9fZR5ONA7Qq86j6XnF-7" value="Adds" style="rhombus;whiteSpace=wrap;html=1;fillColor=#f8cecc;strokeColor=#b85450;" parent="1" vertex="1">
          <mxGeometry x="390" y="220" width="60" height="50" as="geometry" />
        </mxCell>
        <mxCell id="uK9fZR5ONA7Qq86j6XnF-15" value="EagleGeneratedCost" style="rounded=0;whiteSpace=wrap;html=1;fillColor=#dae8fc;strokeColor=#6c8ebf;" parent="1" vertex="1">
          <mxGeometry x="360" y="560" width="120" height="60" as="geometry" />
        </mxCell>
        <mxCell id="uK9fZR5ONA7Qq86j6XnF-17" style="edgeStyle=orthogonalEdgeStyle;rounded=0;orthogonalLoop=1;jettySize=auto;html=1;" parent="1" source="uK9fZR5ONA7Qq86j6XnF-16" target="uK9fZR5ONA7Qq86j6XnF-1" edge="1">
          <mxGeometry relative="1" as="geometry" />
        </mxCell>
        <mxCell id="uK9fZR5ONA7Qq86j6XnF-18" style="edgeStyle=orthogonalEdgeStyle;rounded=0;orthogonalLoop=1;jettySize=auto;html=1;exitX=0.5;exitY=1;exitDx=0;exitDy=0;entryX=0.5;entryY=0;entryDx=0;entryDy=0;endArrow=none;endFill=0;" parent="1" source="uK9fZR5ONA7Qq86j6XnF-16" target="uK9fZR5ONA7Qq86j6XnF-15" edge="1">
          <mxGeometry relative="1" as="geometry" />
        </mxCell>
        <mxCell id="uK9fZR5ONA7Qq86j6XnF-16" value="Generate" style="rhombus;whiteSpace=wrap;html=1;fillColor=#f8cecc;strokeColor=#b85450;" parent="1" vertex="1">
          <mxGeometry x="385" y="430" width="70" height="70" as="geometry" />
        </mxCell>
        <mxCell id="uK9fZR5ONA7Qq86j6XnF-60" style="edgeStyle=orthogonalEdgeStyle;rounded=0;orthogonalLoop=1;jettySize=auto;html=1;exitX=0.5;exitY=0;exitDx=0;exitDy=0;entryX=0.25;entryY=1;entryDx=0;entryDy=0;endArrow=none;endFill=0;" parent="1" source="uK9fZR5ONA7Qq86j6XnF-19" target="uK9fZR5ONA7Qq86j6XnF-15" edge="1">
          <mxGeometry relative="1" as="geometry" />
        </mxCell>
        <mxCell id="uK9fZR5ONA7Qq86j6XnF-19" value="Price" style="ellipse;whiteSpace=wrap;html=1;fillColor=#fff2cc;strokeColor=#d6b656;" parent="1" vertex="1">
          <mxGeometry x="345" y="650" width="80" height="40" as="geometry" />
        </mxCell>
        <mxCell id="uK9fZR5ONA7Qq86j6XnF-59" style="edgeStyle=orthogonalEdgeStyle;rounded=0;orthogonalLoop=1;jettySize=auto;html=1;exitX=0;exitY=0.5;exitDx=0;exitDy=0;entryX=0.75;entryY=1;entryDx=0;entryDy=0;endArrow=none;endFill=0;" parent="1" source="uK9fZR5ONA7Qq86j6XnF-21" target="uK9fZR5ONA7Qq86j6XnF-15" edge="1">
          <mxGeometry relative="1" as="geometry" />
        </mxCell>
        <mxCell id="uK9fZR5ONA7Qq86j6XnF-21" value="&lt;u&gt;TransactionID&lt;/u&gt;" style="ellipse;whiteSpace=wrap;html=1;fillColor=#fff2cc;strokeColor=#d6b656;" parent="1" vertex="1">
          <mxGeometry x="470" y="650" width="80" height="40" as="geometry" />
        </mxCell>
        <mxCell id="uK9fZR5ONA7Qq86j6XnF-62" style="edgeStyle=orthogonalEdgeStyle;rounded=0;orthogonalLoop=1;jettySize=auto;html=1;exitX=0.5;exitY=1;exitDx=0;exitDy=0;entryX=1;entryY=0.25;entryDx=0;entryDy=0;endArrow=none;endFill=0;" parent="1" source="uK9fZR5ONA7Qq86j6XnF-22" target="uK9fZR5ONA7Qq86j6XnF-4" edge="1">
          <mxGeometry relative="1" as="geometry" />
        </mxCell>
        <mxCell id="uK9fZR5ONA7Qq86j6XnF-22" value="Item" style="ellipse;whiteSpace=wrap;html=1;fillColor=#fff2cc;strokeColor=#d6b656;" parent="1" vertex="1">
          <mxGeometry x="520" y="20" width="80" height="40" as="geometry" />
        </mxCell>
        <mxCell id="uK9fZR5ONA7Qq86j6XnF-63" style="edgeStyle=orthogonalEdgeStyle;rounded=0;orthogonalLoop=1;jettySize=auto;html=1;exitX=0.5;exitY=1;exitDx=0;exitDy=0;entryX=0.75;entryY=0;entryDx=0;entryDy=0;endArrow=none;endFill=0;" parent="1" source="uK9fZR5ONA7Qq86j6XnF-23" target="uK9fZR5ONA7Qq86j6XnF-4" edge="1">
          <mxGeometry relative="1" as="geometry" />
        </mxCell>
        <mxCell id="uK9fZR5ONA7Qq86j6XnF-23" value="Colour" style="ellipse;whiteSpace=wrap;html=1;fillColor=#fff2cc;strokeColor=#d6b656;" parent="1" vertex="1">
          <mxGeometry x="410" y="20" width="80" height="40" as="geometry" />
        </mxCell>
        <mxCell id="uK9fZR5ONA7Qq86j6XnF-24" value="Price" style="ellipse;whiteSpace=wrap;html=1;fillColor=#fff2cc;strokeColor=#d6b656;" parent="1" vertex="1">
          <mxGeometry x="320" y="20" width="80" height="40" as="geometry" />
        </mxCell>
        <mxCell id="uK9fZR5ONA7Qq86j6XnF-53" style="edgeStyle=orthogonalEdgeStyle;rounded=0;orthogonalLoop=1;jettySize=auto;html=1;exitX=0;exitY=0.5;exitDx=0;exitDy=0;entryX=0.75;entryY=1;entryDx=0;entryDy=0;endArrow=none;endFill=0;" parent="1" source="uK9fZR5ONA7Qq86j6XnF-25" target="uK9fZR5ONA7Qq86j6XnF-2" edge="1">
          <mxGeometry relative="1" as="geometry" />
        </mxCell>
        <mxCell id="uK9fZR5ONA7Qq86j6XnF-25" value="ResDate" style="ellipse;whiteSpace=wrap;html=1;fillColor=#fff2cc;strokeColor=#d6b656;" parent="1" vertex="1">
          <mxGeometry x="840" y="445" width="80" height="40" as="geometry" />
        </mxCell>
        <mxCell id="uK9fZR5ONA7Qq86j6XnF-66" style="edgeStyle=orthogonalEdgeStyle;rounded=0;orthogonalLoop=1;jettySize=auto;html=1;exitX=1;exitY=0.5;exitDx=0;exitDy=0;entryX=0.5;entryY=1;entryDx=0;entryDy=0;endArrow=none;endFill=0;" parent="1" source="uK9fZR5ONA7Qq86j6XnF-26" target="uK9fZR5ONA7Qq86j6XnF-3" edge="1">
          <mxGeometry relative="1" as="geometry" />
        </mxCell>
        <mxCell id="uK9fZR5ONA7Qq86j6XnF-26" value="FeedTime" style="ellipse;whiteSpace=wrap;html=1;fillColor=#fff2cc;strokeColor=#d6b656;" parent="1" vertex="1">
          <mxGeometry x="-80" y="410" width="80" height="40" as="geometry" />
        </mxCell>
        <mxCell id="uK9fZR5ONA7Qq86j6XnF-68" style="edgeStyle=orthogonalEdgeStyle;rounded=0;orthogonalLoop=1;jettySize=auto;html=1;exitX=1;exitY=0.5;exitDx=0;exitDy=0;entryX=0;entryY=0.5;entryDx=0;entryDy=0;" parent="1" source="uK9fZR5ONA7Qq86j6XnF-27" target="uK9fZR5ONA7Qq86j6XnF-3" edge="1">
          <mxGeometry relative="1" as="geometry" />
        </mxCell>
        <mxCell id="uK9fZR5ONA7Qq86j6XnF-27" value="FeedDate" style="ellipse;whiteSpace=wrap;html=1;fillColor=#fff2cc;strokeColor=#d6b656;" parent="1" vertex="1">
          <mxGeometry x="-150" y="330" width="80" height="40" as="geometry" />
        </mxCell>
        <mxCell id="uK9fZR5ONA7Qq86j6XnF-69" style="edgeStyle=orthogonalEdgeStyle;rounded=0;orthogonalLoop=1;jettySize=auto;html=1;exitX=1;exitY=0.5;exitDx=0;exitDy=0;entryX=0.25;entryY=0;entryDx=0;entryDy=0;endArrow=none;endFill=0;" parent="1" source="uK9fZR5ONA7Qq86j6XnF-28" target="uK9fZR5ONA7Qq86j6XnF-3" edge="1">
          <mxGeometry relative="1" as="geometry" />
        </mxCell>
        <mxCell id="uK9fZR5ONA7Qq86j6XnF-28" value="Feedback" style="ellipse;whiteSpace=wrap;html=1;fillColor=#fff2cc;strokeColor=#d6b656;" parent="1" vertex="1">
          <mxGeometry x="-120" y="260" width="80" height="40" as="geometry" />
        </mxCell>
        <mxCell id="uK9fZR5ONA7Qq86j6XnF-54" style="edgeStyle=orthogonalEdgeStyle;rounded=0;orthogonalLoop=1;jettySize=auto;html=1;exitX=0;exitY=0.5;exitDx=0;exitDy=0;entryX=1;entryY=0.5;entryDx=0;entryDy=0;endArrow=none;endFill=0;" parent="1" source="uK9fZR5ONA7Qq86j6XnF-30" target="uK9fZR5ONA7Qq86j6XnF-2" edge="1">
          <mxGeometry relative="1" as="geometry" />
        </mxCell>
        <mxCell id="uK9fZR5ONA7Qq86j6XnF-30" value="ResTime" style="ellipse;whiteSpace=wrap;html=1;fillColor=#fff2cc;strokeColor=#d6b656;" parent="1" vertex="1">
          <mxGeometry x="910" y="370" width="80" height="40" as="geometry" />
        </mxCell>
        <mxCell id="uK9fZR5ONA7Qq86j6XnF-55" style="edgeStyle=orthogonalEdgeStyle;rounded=0;orthogonalLoop=1;jettySize=auto;html=1;exitX=0;exitY=0.5;exitDx=0;exitDy=0;entryX=1;entryY=0.25;entryDx=0;entryDy=0;endArrow=none;endFill=0;" parent="1" source="uK9fZR5ONA7Qq86j6XnF-31" target="uK9fZR5ONA7Qq86j6XnF-2" edge="1">
          <mxGeometry relative="1" as="geometry" />
        </mxCell>
        <mxCell id="uK9fZR5ONA7Qq86j6XnF-31" value="&lt;u&gt;ResID&lt;/u&gt;" style="ellipse;whiteSpace=wrap;html=1;fillColor=#fff2cc;strokeColor=#d6b656;" parent="1" vertex="1">
          <mxGeometry x="910" y="295" width="80" height="40" as="geometry" />
        </mxCell>
        <mxCell id="uK9fZR5ONA7Qq86j6XnF-61" style="edgeStyle=orthogonalEdgeStyle;rounded=0;orthogonalLoop=1;jettySize=auto;html=1;exitX=0;exitY=0.5;exitDx=0;exitDy=0;entryX=1;entryY=0.5;entryDx=0;entryDy=0;endArrow=none;endFill=0;" parent="1" source="uK9fZR5ONA7Qq86j6XnF-32" target="uK9fZR5ONA7Qq86j6XnF-4" edge="1">
          <mxGeometry relative="1" as="geometry" />
        </mxCell>
        <mxCell id="uK9fZR5ONA7Qq86j6XnF-32" value="&lt;u&gt;InvID&lt;/u&gt;" style="ellipse;whiteSpace=wrap;html=1;fillColor=#fff2cc;strokeColor=#d6b656;" parent="1" vertex="1">
          <mxGeometry x="570" y="120" width="80" height="40" as="geometry" />
        </mxCell>
        <mxCell id="uK9fZR5ONA7Qq86j6XnF-44" style="edgeStyle=orthogonalEdgeStyle;rounded=0;orthogonalLoop=1;jettySize=auto;html=1;exitX=0.5;exitY=0;exitDx=0;exitDy=0;entryX=1;entryY=0.75;entryDx=0;entryDy=0;endArrow=none;endFill=0;" parent="1" source="uK9fZR5ONA7Qq86j6XnF-33" target="uK9fZR5ONA7Qq86j6XnF-1" edge="1">
          <mxGeometry relative="1" as="geometry" />
        </mxCell>
        <mxCell id="uK9fZR5ONA7Qq86j6XnF-33" value="Password" style="ellipse;whiteSpace=wrap;html=1;fillColor=#fff2cc;strokeColor=#d6b656;" parent="1" vertex="1">
          <mxGeometry x="520" y="390" width="80" height="40" as="geometry" />
        </mxCell>
        <mxCell id="uK9fZR5ONA7Qq86j6XnF-34" value="IsAdmin" style="ellipse;whiteSpace=wrap;html=1;fillColor=#fff2cc;strokeColor=#d6b656;" parent="1" vertex="1">
          <mxGeometry x="540" y="445" width="80" height="40" as="geometry" />
        </mxCell>
        <mxCell id="uK9fZR5ONA7Qq86j6XnF-47" style="edgeStyle=orthogonalEdgeStyle;rounded=0;orthogonalLoop=1;jettySize=auto;html=1;exitX=1;exitY=0.5;exitDx=0;exitDy=0;entryX=0;entryY=1;entryDx=0;entryDy=0;endArrow=none;endFill=0;" parent="1" source="uK9fZR5ONA7Qq86j6XnF-35" target="uK9fZR5ONA7Qq86j6XnF-1" edge="1">
          <mxGeometry relative="1" as="geometry">
            <Array as="points">
              <mxPoint x="370" y="440" />
              <mxPoint x="370" y="380" />
            </Array>
          </mxGeometry>
        </mxCell>
        <mxCell id="uK9fZR5ONA7Qq86j6XnF-35" value="Fname" style="ellipse;whiteSpace=wrap;html=1;fillColor=#fff2cc;strokeColor=#d6b656;" parent="1" vertex="1">
          <mxGeometry x="260" y="420" width="80" height="40" as="geometry" />
        </mxCell>
        <mxCell id="uK9fZR5ONA7Qq86j6XnF-36" value="&lt;u&gt;UserID&lt;/u&gt;" style="ellipse;whiteSpace=wrap;html=1;fillColor=#fff2cc;strokeColor=#d6b656;" parent="1" vertex="1">
          <mxGeometry x="270" y="460" width="80" height="40" as="geometry" />
        </mxCell>
        <mxCell id="uK9fZR5ONA7Qq86j6XnF-48" style="edgeStyle=orthogonalEdgeStyle;rounded=0;orthogonalLoop=1;jettySize=auto;html=1;exitX=1;exitY=0.5;exitDx=0;exitDy=0;entryX=0;entryY=0;entryDx=0;entryDy=0;endArrow=none;endFill=0;" parent="1" source="uK9fZR5ONA7Qq86j6XnF-37" target="uK9fZR5ONA7Qq86j6XnF-1" edge="1">
          <mxGeometry relative="1" as="geometry" />
        </mxCell>
        <mxCell id="uK9fZR5ONA7Qq86j6XnF-37" value="Lname" style="ellipse;whiteSpace=wrap;html=1;fillColor=#fff2cc;strokeColor=#d6b656;" parent="1" vertex="1">
          <mxGeometry x="250" y="270" width="80" height="40" as="geometry" />
        </mxCell>
        <mxCell id="uK9fZR5ONA7Qq86j6XnF-38" value="DOB" style="ellipse;whiteSpace=wrap;html=1;fillColor=#fff2cc;strokeColor=#d6b656;" parent="1" vertex="1">
          <mxGeometry x="280" y="210" width="80" height="40" as="geometry" />
        </mxCell>
        <mxCell id="uK9fZR5ONA7Qq86j6XnF-39" value="Telephone" style="ellipse;whiteSpace=wrap;html=1;fillColor=#fff2cc;strokeColor=#d6b656;" parent="1" vertex="1">
          <mxGeometry x="460" y="210" width="80" height="40" as="geometry" />
        </mxCell>
        <mxCell id="uK9fZR5ONA7Qq86j6XnF-50" style="edgeStyle=orthogonalEdgeStyle;rounded=0;orthogonalLoop=1;jettySize=auto;html=1;exitX=0.5;exitY=1;exitDx=0;exitDy=0;entryX=1;entryY=0.25;entryDx=0;entryDy=0;endArrow=none;endFill=0;" parent="1" source="uK9fZR5ONA7Qq86j6XnF-40" target="uK9fZR5ONA7Qq86j6XnF-1" edge="1">
          <mxGeometry relative="1" as="geometry" />
        </mxCell>
        <mxCell id="uK9fZR5ONA7Qq86j6XnF-40" value="email" style="ellipse;whiteSpace=wrap;html=1;fillColor=#fff2cc;strokeColor=#d6b656;" parent="1" vertex="1">
          <mxGeometry x="490" y="270" width="80" height="40" as="geometry" />
        </mxCell>
        <mxCell id="uK9fZR5ONA7Qq86j6XnF-42" style="edgeStyle=orthogonalEdgeStyle;rounded=0;orthogonalLoop=1;jettySize=auto;html=1;exitX=0;exitY=0.5;exitDx=0;exitDy=0;entryX=1;entryY=0.5;entryDx=0;entryDy=0;" parent="1" source="uK9fZR5ONA7Qq86j6XnF-41" target="uK9fZR5ONA7Qq86j6XnF-15" edge="1">
          <mxGeometry relative="1" as="geometry" />
        </mxCell>
        <mxCell id="uK9fZR5ONA7Qq86j6XnF-43" style="edgeStyle=orthogonalEdgeStyle;rounded=0;orthogonalLoop=1;jettySize=auto;html=1;exitX=1;exitY=0.5;exitDx=0;exitDy=0;entryX=0.5;entryY=1;entryDx=0;entryDy=0;endArrow=none;endFill=0;" parent="1" source="uK9fZR5ONA7Qq86j6XnF-41" target="uK9fZR5ONA7Qq86j6XnF-2" edge="1">
          <mxGeometry relative="1" as="geometry" />
        </mxCell>
        <mxCell id="uK9fZR5ONA7Qq86j6XnF-41" value="Needs" style="rhombus;whiteSpace=wrap;html=1;fillColor=#f8cecc;strokeColor=#b85450;" parent="1" vertex="1">
          <mxGeometry x="600" y="565" width="50" height="50" as="geometry" />
        </mxCell>
        <mxCell id="uK9fZR5ONA7Qq86j6XnF-45" style="edgeStyle=orthogonalEdgeStyle;rounded=0;orthogonalLoop=1;jettySize=auto;html=1;entryX=0.842;entryY=0.983;entryDx=0;entryDy=0;entryPerimeter=0;endArrow=none;endFill=0;" parent="1" source="uK9fZR5ONA7Qq86j6XnF-34" target="uK9fZR5ONA7Qq86j6XnF-1" edge="1">
          <mxGeometry relative="1" as="geometry" />
        </mxCell>
        <mxCell id="uK9fZR5ONA7Qq86j6XnF-46" style="edgeStyle=orthogonalEdgeStyle;rounded=0;orthogonalLoop=1;jettySize=auto;html=1;exitX=1;exitY=0.5;exitDx=0;exitDy=0;entryX=0.142;entryY=0.961;entryDx=0;entryDy=0;entryPerimeter=0;endArrow=none;endFill=0;" parent="1" source="uK9fZR5ONA7Qq86j6XnF-36" target="uK9fZR5ONA7Qq86j6XnF-1" edge="1">
          <mxGeometry relative="1" as="geometry" />
        </mxCell>
        <mxCell id="uK9fZR5ONA7Qq86j6XnF-49" style="edgeStyle=orthogonalEdgeStyle;rounded=0;orthogonalLoop=1;jettySize=auto;html=1;exitX=1;exitY=0.5;exitDx=0;exitDy=0;entryX=0.164;entryY=-0.039;entryDx=0;entryDy=0;entryPerimeter=0;endArrow=none;endFill=0;" parent="1" source="uK9fZR5ONA7Qq86j6XnF-38" target="uK9fZR5ONA7Qq86j6XnF-1" edge="1">
          <mxGeometry relative="1" as="geometry" />
        </mxCell>
        <mxCell id="uK9fZR5ONA7Qq86j6XnF-52" style="edgeStyle=orthogonalEdgeStyle;rounded=0;orthogonalLoop=1;jettySize=auto;html=1;exitX=0;exitY=1;exitDx=0;exitDy=0;entryX=0.931;entryY=0.006;entryDx=0;entryDy=0;entryPerimeter=0;endArrow=none;endFill=0;" parent="1" source="uK9fZR5ONA7Qq86j6XnF-39" target="uK9fZR5ONA7Qq86j6XnF-1" edge="1">
          <mxGeometry relative="1" as="geometry" />
        </mxCell>
        <mxCell id="uK9fZR5ONA7Qq86j6XnF-64" style="edgeStyle=orthogonalEdgeStyle;rounded=0;orthogonalLoop=1;jettySize=auto;html=1;exitX=0.5;exitY=1;exitDx=0;exitDy=0;entryX=0.407;entryY=-0.006;entryDx=0;entryDy=0;entryPerimeter=0;endArrow=none;endFill=0;" parent="1" source="uK9fZR5ONA7Qq86j6XnF-24" target="uK9fZR5ONA7Qq86j6XnF-4" edge="1">
          <mxGeometry relative="1" as="geometry" />
        </mxCell>
        <mxCell id="uK9fZR5ONA7Qq86j6XnF-70" style="edgeStyle=orthogonalEdgeStyle;rounded=0;orthogonalLoop=1;jettySize=auto;html=1;exitX=0.5;exitY=1;exitDx=0;exitDy=0;endArrow=none;endFill=0;" parent="1" source="uK9fZR5ONA7Qq86j6XnF-65" edge="1">
          <mxGeometry relative="1" as="geometry">
            <mxPoint x="50.04761904761904" y="320" as="targetPoint" />
          </mxGeometry>
        </mxCell>
        <mxCell id="uK9fZR5ONA7Qq86j6XnF-65" value="&lt;u&gt;FeedID&lt;/u&gt;" style="ellipse;whiteSpace=wrap;html=1;fillColor=#fff2cc;strokeColor=#d6b656;" parent="1" vertex="1">
          <mxGeometry x="10" y="220" width="80" height="40" as="geometry" />
        </mxCell>
        <mxCell id="uK9fZR5ONA7Qq86j6XnF-72" style="edgeStyle=orthogonalEdgeStyle;rounded=0;orthogonalLoop=1;jettySize=auto;html=1;exitX=0.5;exitY=1;exitDx=0;exitDy=0;entryX=0;entryY=0.5;entryDx=0;entryDy=0;endArrow=none;endFill=0;" parent="1" source="uK9fZR5ONA7Qq86j6XnF-71" target="uK9fZR5ONA7Qq86j6XnF-4" edge="1">
          <mxGeometry relative="1" as="geometry" />
        </mxCell>
        <mxCell id="uK9fZR5ONA7Qq86j6XnF-71" value="Grade" style="ellipse;whiteSpace=wrap;html=1;fillColor=#fff2cc;strokeColor=#d6b656;" parent="1" vertex="1">
          <mxGeometry x="200" y="70" width="80" height="40" as="geometry" />
        </mxCell>
        <mxCell id="zPSdHtvBQnruKFJcRZPF-2" style="edgeStyle=orthogonalEdgeStyle;rounded=0;orthogonalLoop=1;jettySize=auto;html=1;exitX=1;exitY=0.5;exitDx=0;exitDy=0;entryX=0;entryY=0.75;entryDx=0;entryDy=0;endArrow=none;endFill=0;" edge="1" parent="1" source="zPSdHtvBQnruKFJcRZPF-1" target="uK9fZR5ONA7Qq86j6XnF-1">
          <mxGeometry relative="1" as="geometry" />
        </mxCell>
        <mxCell id="zPSdHtvBQnruKFJcRZPF-1" value="IsOwner" style="ellipse;whiteSpace=wrap;html=1;fillColor=#fff2cc;strokeColor=#d6b656;" vertex="1" parent="1">
          <mxGeometry x="230" y="370" width="80" height="40" as="geometry" />
        </mxCell>
      </root>
    </mxGraphModel>
  </diagram>
</mxfile>
